{"title":"Frequency.2000.DVDRiP.XviD.OPTIONAL-NORDIC_SUB-Zen_Bud","uid":5911806,"size":955337045,"categoryP":"video","categoryS":"movies","magnet":"?xt=urn:btih:1d38c2c0a483f668cae31109e7454ec406791758&amp;dn=Frequency.2000.DVDRiP.XviD.OPTIONAL-NORDIC_SUB-Zen_Bud&amp;tr=udp%3A%2F%2Ftracker.openbittorrent.com%3A80&amp;tr=udp%3A%2F%2Fopen.demonii.com%3A1337&amp;tr=udp%3A%2F%2Ftracker.coppersurfer.tk%3A6969&amp;tr=udp%3A%2F%2Fexodus.desync.com%3A6969","seeders":0,"leechers":1,"uploader":"Zen_Bud","files":-1,"time":1288082222,"description":"********* Frequency.2000.DVDRiP.XviD.OPTIONAL-NORDIC_SUB-Zen_Bud **********\n\nFormat                           : AVI \nFile size                        : 895 MiB\nDuration                         : 1h 53mn\nOverall bit rate                 : 1 101 Kbps\n\nVideo\n\nFormat                           : MPEG-4 Visual\nCodec ID/Hint                    : XviD\nDuration                         : 1h 53mn\nBit rate                         : 960 Kbps\nWidth                            : 702 pixels\nHeight                           : 434 pixels\nDisplay aspect ratio             : 2.25:1\nFrame rate                       : 25.000 fps\nStream size                      : 780 MiB (87%)\nWriting library                  : XviD 1.1.2 (UTC 2006-11-01)\n\nAudio\n\nFormat                           : MPEG Audio\nCodec ID/Hint                    : MP3\nDuration                         : 1h 53mn\nBit rate                         : 128 Kbps\nChannel(s)                       : 2 channels\nSampling rate                    : 48.0 KHz\nStream size                      : 104 MiB (12%)\nLanguage                         : English\n\nText #1\nLanguage                         : Swedish\n\nText #2\nLanguage                         : Norwegian\n\nText #3\nLanguage                         : Finnish\n\nText #4\nLanguage                         : Danish\n\n\n\nAn accidental cross-time radio link connects father and son across 30 years. The son tries to save his father's life, but then must fix the consequences. \n\n","torrent":{"xt":"urn:btih:1d38c2c0a483f668cae31109e7454ec406791758","amp;dn":"Frequency.2000.DVDRiP.XviD.OPTIONAL-NORDIC_SUB-Zen_Bud","amp;tr":["udp%3A%2F%2Ftracker.openbittorrent.com%3A80","udp%3A%2F%2Fopen.demonii.com%3A1337","udp%3A%2F%2Ftracker.coppersurfer.tk%3A6969","udp%3A%2F%2Fexodus.desync.com%3A6969"],"infoHash":"1d38c2c0a483f668cae31109e7454ec406791758","infoHashBuffer":{"type":"Buffer","data":[29,56,194,192,164,131,246,104,202,227,17,9,231,69,78,196,6,121,23,88]},"announce":[],"urlList":[]}}